<svg xmlns="http://www.w3.org/2000/svg" xmlns:xlink="http://www.w3.org/1999/xlink" xmlns:lucid="lucid" width="1433.6" height="683.17"><g transform="translate(-164.38187712861918 -201.66666666666663)" lucid:page-tab-id="NUDq6GBwIiKa"><path d="M184.38 221.67h278.6v31.6h-278.6zM462.98 221.67h278v31.6h-278zM740.98 221.67h278v31.6h-278zM1018.98 221.67h279v31.6h-279zM1297.98 221.67h280v31.6h-280zM184.38 253.27h55.6v31.6h-55.6zM239.98 253.27h55v31.6h-55zM294.98 253.27h56v31.6h-56zM350.98 253.27h56v31.6h-56zM406.98 253.27h56v31.6h-56zM462.98 253.27h56v31.6h-56zM518.98 253.27h55v31.6h-55zM573.98 253.27h56v31.6h-56zM629.98 253.27h55v31.6h-55zM684.98 253.27h56v31.6h-56zM740.98 253.27h56v31.6h-56zM796.98 253.27h55v31.6h-55zM851.98 253.27h56v31.6h-56zM907.98 253.27h55v31.6h-55zM962.98 253.27h56v31.6h-56zM1018.98 253.27h56v31.6h-56zM1074.98 253.27h55v31.6h-55zM1129.98 253.27h56v31.6h-56zM1185.98 253.27h56v31.6h-56zM1241.98 253.27h56v31.6h-56zM1297.98 253.27h56v31.6h-56zM1353.98 253.27h56v31.6h-56zM1409.98 253.27h56v31.6h-56zM1465.98 253.27h56v31.6h-56zM1521.98 253.27h56v31.6h-56z" fill="#ccc"/><path d="M184.38 284.87h55.6v441h-55.6zM239.98 284.87h55v441h-55zM294.98 284.87h56v441h-56zM350.98 284.87h56v441h-56zM406.98 284.87h56v441h-56zM462.98 284.87h56v441h-56zM518.98 284.87h55v441h-55zM573.98 284.87h56v441h-56zM629.98 284.87h55v441h-55zM684.98 284.87h56v441h-56zM740.98 284.87h56v441h-56zM796.98 284.87h55v441h-55zM851.98 284.87h56v441h-56zM907.98 284.87h55v441h-55zM962.98 284.87h56v441h-56zM1018.98 284.87h56v441h-56zM1074.98 284.87h55v441h-55zM1129.98 284.87h56v441h-56zM1185.98 284.87h56v441h-56zM1241.98 284.87h56v441h-56zM1297.98 284.87h56v441h-56zM1353.98 284.87h56v441h-56zM1409.98 284.87h56v441h-56zM1465.98 284.87h56v441h-56zM1521.98 284.87h56v441h-56z" fill="#fff"/><path d="M184.38 221.67v31.6M462.98 221.67v31.6M740.98 221.67v31.6M1018.98 221.67v31.6M1297.98 221.67v31.6M1577.98 221.67v31.6M184.38 253.27v31.6M239.98 253.27v31.6M294.98 253.27v31.6M350.98 253.27v31.6M406.98 253.27v31.6M462.98 253.27v31.6M518.98 253.27v31.6M573.98 253.27v31.6M629.98 253.27v31.6M684.98 253.27v31.6M740.98 253.27v31.6M796.98 253.27v31.6M851.98 253.27v31.6M907.98 253.27v31.6M962.98 253.27v31.6M1018.98 253.27v31.6M1074.98 253.27v31.6M1129.98 253.27v31.6M1185.98 253.27v31.6M1241.98 253.27v31.6M1297.98 253.27v31.6M1353.98 253.27v31.6M1409.98 253.27v31.6M1465.98 253.27v31.6M1521.98 253.27v31.6M1577.98 253.27v31.6M184.38 284.87v441M239.98 284.87v441M294.98 284.87v441M350.98 284.87v441M406.98 284.87v441M462.98 284.87v441M518.98 284.87v441M573.98 284.87v441M629.98 284.87v441M684.98 284.87v441M740.98 284.87v441M796.98 284.87v441M851.98 284.87v441M907.98 284.87v441M962.98 284.87v441M1018.98 284.87v441M1074.98 284.87v441M1129.98 284.87v441M1185.98 284.87v441M1241.98 284.87v441M1297.98 284.87v441M1353.98 284.87v441M1409.98 284.87v441M1465.98 284.87v441M1521.98 284.87v441M1577.98 284.87v441M184.38 221.67h278.6M462.98 221.67h278M740.98 221.67h278M1018.98 221.67h279M1297.98 221.67h280M184.38 253.27h55.6M239.98 253.27h55M294.98 253.27h56M350.98 253.27h56M406.98 253.27h56M462.98 253.27h56M518.98 253.27h55M573.98 253.27h56M629.98 253.27h55M684.98 253.27h56M740.98 253.27h56M796.98 253.27h55M851.98 253.27h56M907.98 253.27h55M962.98 253.27h56M1018.98 253.27h56M1074.98 253.27h55M1129.98 253.27h56M1185.98 253.27h56M1241.98 253.27h56M1297.98 253.27h56M1353.98 253.27h56M1409.98 253.27h56M1465.98 253.27h56M1521.98 253.27h56M184.38 284.87h55.6M184.38 725.87h55.6M239.98 284.87h55M239.98 725.87h55M294.98 284.87h56M294.98 725.87h56M350.98 284.87h56M350.98 725.87h56M406.98 284.87h56M406.98 725.87h56M462.98 284.87h56M462.98 725.87h56M518.98 284.87h55M518.98 725.87h55M573.98 284.87h56M573.98 725.87h56M629.98 284.87h55M629.98 725.87h55M684.98 284.87h56M684.98 725.87h56M740.98 284.87h56M740.98 725.87h56M796.98 284.87h55M796.98 725.87h55M851.98 284.87h56M851.98 725.87h56M907.98 284.87h55M907.98 725.87h55M962.98 284.87h56M962.98 725.87h56M1018.98 284.87h56M1018.98 725.87h56M1074.98 284.87h55M1074.98 725.87h55M1129.98 284.87h56M1129.98 725.87h56M1185.98 284.87h56M1185.98 725.87h56M1241.98 284.87h56M1241.98 725.87h56M1297.98 284.87h56M1297.98 725.87h56M1353.98 284.87h56M1353.98 725.87h56M1409.98 284.87h56M1409.98 725.87h56M1465.98 284.87h56M1465.98 725.87h56M1521.98 284.87h56M1521.98 725.87h56" stroke="#666" fill="none"/><use xlink:href="#a" transform="matrix(1,0,0,1,745.9818771286192,226.66666666666663) translate(111.2 14.6)"/><use xlink:href="#b" transform="matrix(1,0,0,1,189.38187712861918,258.26666666666665) translate(18 14.6)"/><use xlink:href="#c" transform="matrix(1,0,0,1,244.98187712861917,258.26666666666665) translate(17.5 14.6)"/><use xlink:href="#d" transform="matrix(1,0,0,1,299.9818771286192,258.26666666666665) translate(18 14.6)"/><use xlink:href="#e" transform="matrix(1,0,0,1,355.9818771286192,258.26666666666665) translate(18 14.6)"/><use xlink:href="#f" transform="matrix(1,0,0,1,411.9818771286192,258.26666666666665) translate(18 14.6)"/><use xlink:href="#g" transform="matrix(1,0,0,1,467.9818771286192,258.26666666666665) translate(18 14.6)"/><use xlink:href="#h" transform="matrix(1,0,0,1,523.9818771286192,258.26666666666665) translate(17.5 14.6)"/><use xlink:href="#i" transform="matrix(1,0,0,1,578.9818771286192,258.26666666666665) translate(18 14.6)"/><use xlink:href="#j" transform="matrix(1,0,0,1,634.9818771286192,258.26666666666665) translate(17.5 14.6)"/><use xlink:href="#k" transform="matrix(1,0,0,1,689.9818771286192,258.26666666666665) translate(13 14.6)"/><use xlink:href="#l" transform="matrix(1,0,0,1,745.9818771286192,258.26666666666665) translate(13.675 14.6)"/><use xlink:href="#m" transform="matrix(1,0,0,1,801.9818771286192,258.26666666666665) translate(12.5 14.6)"/><use xlink:href="#n" transform="matrix(1,0,0,1,856.9818771286192,258.26666666666665) translate(13 14.6)"/><use xlink:href="#o" transform="matrix(1,0,0,1,912.9818771286192,258.26666666666665) translate(12.5 14.6)"/><use xlink:href="#p" transform="matrix(1,0,0,1,967.9818771286192,258.26666666666665) translate(13 14.6)"/><use xlink:href="#q" transform="matrix(1,0,0,1,1023.9818771286192,258.26666666666665) translate(13 14.6)"/><use xlink:href="#r" transform="matrix(1,0,0,1,1079.981877128619,258.26666666666665) translate(12.5 14.6)"/><use xlink:href="#s" transform="matrix(1,0,0,1,1134.981877128619,258.26666666666665) translate(13 14.6)"/><use xlink:href="#t" transform="matrix(1,0,0,1,1190.981877128619,258.26666666666665) translate(13 14.6)"/><use xlink:href="#u" transform="matrix(1,0,0,1,1246.981877128619,258.26666666666665) translate(13 14.6)"/><use xlink:href="#v" transform="matrix(1,0,0,1,1302.981877128619,258.26666666666665) translate(13 14.6)"/><use xlink:href="#w" transform="matrix(1,0,0,1,1358.981877128619,258.26666666666665) translate(13 14.6)"/><use xlink:href="#x" transform="matrix(1,0,0,1,1414.981877128619,258.26666666666665) translate(13 14.6)"/><use xlink:href="#y" transform="matrix(1,0,0,1,1470.981877128619,258.26666666666665) translate(13 14.6)"/><use xlink:href="#z" transform="matrix(1,0,0,1,1526.981877128619,258.26666666666665) translate(13 14.6)"/><path d="M184.38 280H463v44.1H184.4z" stroke="#666" fill="#75b2ff"/><use xlink:href="#A" transform="matrix(1,0,0,1,189.38187712861918,285) translate(13.697530864197532 22.15277777777778)"/><use xlink:href="#B" transform="matrix(1,0,0,1,189.38187712861918,285) translate(117.27777777777779 22.15277777777778)"/><path d="M350.77 324.1H463v45.03H350.78z" stroke="#666" fill="#75b2ff"/><use xlink:href="#C" transform="matrix(1,0,0,1,355.765640684795,329.09448818897636) translate(2.765432098765423 22.27777777777778)"/><path d="M350.77 369.13h223.6v44.08h-223.6z" stroke="#666" fill="#75b2ff"/><use xlink:href="#D" transform="matrix(1,0,0,1,355.765640684795,374.12645495467984) translate(50.88888888888888 22.15277777777778)"/><path d="M463.6 413.2h333.35v44.1H463.6z" stroke="#666" fill="#ffa0a0"/><use xlink:href="#E" transform="matrix(1,0,0,1,468.59335857111887,418.2091239062559) translate(114.53086419753086 22.15277777777778)"/><use xlink:href="#F" transform="matrix(1,0,0,1,468.59335857111887,418.2091239062559) translate(172.4320987654321 22.15277777777778)"/><path d="M630.18 457.3h389.28v44.1H630.18z" stroke="#666" fill="#ffa0a0"/><use xlink:href="#G" transform="matrix(1,0,0,1,635.1806401814626,462.30361209523227) translate(146.79012345679013 22.15277777777778)"/><path d="M1130.1 589.34h335.88v44.1h-335.9z" stroke="#666" fill="#58d6d7"/><use xlink:href="#H" transform="matrix(1,0,0,1,1135.0891649440011,594.3426799170295) translate(122.35185185185185 22.15277777777778)"/><path d="M1409.5 677.78h168.48v48.1h-168.5z" stroke="#666" fill="#58d6d7"/><use xlink:href="#I" transform="matrix(1,0,0,1,1414.4866972686896,682.776053040114) translate(41.53703703703704 25.09027777777778)"/><path d="M963.47 501.4h446.02v44.1H963.46z" stroke="#666" fill="#ffa0a0"/><use xlink:href="#J" transform="matrix(1,0,0,1,968.4703945570495,506.39810028420857) translate(183.37654320987656 22.15277777777778)"/><path d="M1019.46 545.25h390.03v44.1h-390.04z" stroke="#666" fill="#ffa0a0"/><use xlink:href="#K" transform="matrix(1,0,0,1,1024.45784647049,550.2481917280531) translate(141.7962962962963 22.15277777777778)"/><use xlink:href="#L" transform="matrix(1,0,0,1,1024.45784647049,550.2481917280531) translate(187.47530864197532 22.15277777777778)"/><path d="M1186.45 633.68h279.53v44.1h-279.53z" stroke="#666" fill="#58d6d7"/><use xlink:href="#M" transform="matrix(1,0,0,1,1191.4518185270495,638.6815648511376) translate(60.40123456790124 22.15277777777778)"/><path d="M1481.37 755.63c0-9.78 7.92-17.7 17.7-17.7h41.68c9.77 0 17.7 7.92 17.7 17.7 0 9.77-7.93 17.7-17.7 17.7h-41.7c-9.76 0-17.68-7.93-17.68-17.7z" stroke="#fff" stroke-opacity="0" stroke-width="4" fill="#fff" fill-opacity="0"/><use xlink:href="#N" transform="matrix(1,0,0,1,1486.367280938744,742.9279700122622) translate(0 16.555555555555557)"/><path d="M1481.37 847.14c0-9.78 7.92-17.7 17.7-17.7h41.68c9.77 0 17.7 7.92 17.7 17.7 0 9.77-7.93 17.7-17.7 17.7h-41.7c-9.76 0-17.68-7.93-17.68-17.7z" stroke="#fff" stroke-opacity="0" stroke-width="4" fill="#fff" fill-opacity="0"/><use xlink:href="#O" transform="matrix(1,0,0,1,1486.3672809387442,834.4397055168718) translate(0 16.555555555555557)"/><path d="M1481.37 801.38c0-9.77 7.92-17.7 17.7-17.7h41.68c9.77 0 17.7 7.93 17.7 17.7 0 9.78-7.93 17.7-17.7 17.7h-41.7c-9.76 0-17.68-7.92-17.68-17.7z" stroke="#fff" stroke-opacity="0" stroke-width="4" fill="#fff" fill-opacity="0"/><use xlink:href="#P" transform="matrix(1,0,0,1,1486.367280938744,788.683837764567) translate(0 16.555555555555557)"/><path d="M1453.1 834.8l-18.73 9.58" stroke="#fff" stroke-width="2" fill="none"/><path d="M1453.52 835.7l-.7-1.36h3.36zM1434.85 845.26l-1.37.7v-2.25l.46-.22z" fill="#fff"/><path d="M1453.1 834.8l-18.73 9.58" stroke="#fff" stroke-width="2" fill="none"/><path d="M1453.52 835.7l-.7-1.36h3.36zM1434.85 845.26l-1.37.7v-2.25l.46-.22z" fill="#fff"/><path d="M1453.1 834.8l-18.73 9.58" stroke="#fff" stroke-width="2" fill="none"/><path d="M1453.52 835.7l-.7-1.36h3.36zM1434.85 845.26l-1.37.7v-2.25l.46-.22z" fill="#fff"/><path d="M1433.98 765.63v-20h40v20z" stroke="#fff" fill="#75b2ff"/><g><path d="M1433.98 810.23v-20h40v20z" stroke="#fff" fill="#ffa0a0"/></g><g><path d="M1433.98 854.84v-20h40v20z" stroke="#fff" fill="#58d6d7"/></g><defs><path d="M266 0h-40l-56-210L115 0H75L2-248h35L96-30l15-64 43-154h32l59 218 59-218h35" id="Q"/><path d="M100-194c63 0 86 42 84 106H49c0 40 14 67 53 68 26 1 43-12 49-29l28 8c-11 28-37 45-77 45C44 4 14-33 15-96c1-61 26-98 85-98zm52 81c6-60-76-77-97-28-3 7-6 17-6 28h103" id="R"/><path d="M143 0L79-87 56-68V0H24v-261h32v163l83-92h37l-77 82L181 0h-38" id="S"/><g id="a"><use transform="matrix(0.05,0,0,0.05,0,0)" xlink:href="#Q"/><use transform="matrix(0.05,0,0,0.05,16.599999999999998,0)" xlink:href="#R"/><use transform="matrix(0.05,0,0,0.05,26.599999999999994,0)" xlink:href="#R"/><use transform="matrix(0.05,0,0,0.05,36.599999999999994,0)" xlink:href="#S"/></g><path d="M27 0v-27h64v-190l-56 39v-29l58-41h29v221h61V0H27" id="T"/><use transform="matrix(0.05,0,0,0.05,0,0)" xlink:href="#T" id="b"/><path d="M101-251c82-7 93 87 43 132L82-64C71-53 59-42 53-27h129V0H18c2-99 128-94 128-182 0-28-16-43-45-43s-46 15-49 41l-32-3c6-41 34-60 81-64" id="U"/><use transform="matrix(0.05,0,0,0.05,0,0)" xlink:href="#U" id="c"/><path d="M126-127c33 6 58 20 58 59 0 88-139 92-164 29-3-8-5-16-6-25l32-3c6 27 21 44 54 44 32 0 52-15 52-46 0-38-36-46-79-43v-28c39 1 72-4 72-42 0-27-17-43-46-43-28 0-47 15-49 41l-32-3c6-42 35-63 81-64 48-1 79 21 79 65 0 36-21 52-52 59" id="V"/><use transform="matrix(0.05,0,0,0.05,0,0)" xlink:href="#V" id="d"/><path d="M155-56V0h-30v-56H8v-25l114-167h33v167h35v25h-35zm-30-156c-27 46-58 90-88 131h88v-131" id="W"/><use transform="matrix(0.05,0,0,0.05,0,0)" xlink:href="#W" id="e"/><path d="M54-142c48-35 137-8 131 61C196 18 31 33 14-55l32-4c7 23 22 37 52 37 35-1 51-22 54-58 4-55-73-65-99-34H22l8-134h141v27H59" id="X"/><use transform="matrix(0.05,0,0,0.05,0,0)" xlink:href="#X" id="f"/><path d="M110-160c48 1 74 30 74 79 0 53-28 85-80 85-65 0-83-55-86-122-5-90 50-162 133-122 14 7 22 21 27 39l-31 6c-5-40-67-38-82-6-9 19-15 44-15 74 11-20 30-34 60-33zm-7 138c34 0 49-23 49-58s-16-56-50-56c-29 0-50 16-49 49 1 36 15 65 50 65" id="Y"/><use transform="matrix(0.05,0,0,0.05,0,0)" xlink:href="#Y" id="g"/><path d="M64 0c3-98 48-159 88-221H18v-27h164v26C143-157 98-101 97 0H64" id="Z"/><use transform="matrix(0.05,0,0,0.05,0,0)" xlink:href="#Z" id="h"/><path d="M134-131c28 9 52 24 51 62-1 50-34 73-85 73S17-19 16-69c0-36 21-54 49-61-75-25-45-126 34-121 46 3 78 18 79 63 0 33-17 51-44 57zm-34-11c31 1 46-15 46-44 0-28-17-43-47-42-29 0-46 13-45 42 1 28 16 44 46 44zm1 122c35 0 51-18 51-52 0-30-18-46-53-46-33 0-51 17-51 47 0 34 19 51 53 51" id="aa"/><use transform="matrix(0.05,0,0,0.05,0,0)" xlink:href="#aa" id="i"/><path d="M99-251c64 0 84 50 84 122C183-37 130 33 47-8c-14-7-20-23-25-40l30-5c6 39 69 39 84 7 9-19 16-44 16-74-10 22-31 35-62 35-49 0-73-33-73-83 0-54 28-83 82-83zm-1 141c31-1 51-18 51-49 0-36-14-67-51-67-34 0-49 23-49 58 0 34 15 58 49 58" id="ab"/><use transform="matrix(0.05,0,0,0.05,0,0)" xlink:href="#ab" id="j"/><path d="M101-251c68 0 85 55 85 127S166 4 100 4C33 4 14-52 14-124c0-73 17-127 87-127zm-1 229c47 0 54-49 54-102s-4-102-53-102c-51 0-55 48-55 102 0 53 5 102 54 102" id="ac"/><g id="k"><use transform="matrix(0.05,0,0,0.05,0,0)" xlink:href="#T"/><use transform="matrix(0.05,0,0,0.05,10,0)" xlink:href="#ac"/></g><g id="l"><use transform="matrix(0.05,0,0,0.05,0,0)" xlink:href="#T"/><use transform="matrix(0.05,0,0,0.05,8.65,0)" xlink:href="#T"/></g><g id="m"><use transform="matrix(0.05,0,0,0.05,0,0)" xlink:href="#T"/><use transform="matrix(0.05,0,0,0.05,10,0)" xlink:href="#U"/></g><g id="n"><use transform="matrix(0.05,0,0,0.05,0,0)" xlink:href="#T"/><use transform="matrix(0.05,0,0,0.05,10,0)" xlink:href="#V"/></g><g id="o"><use transform="matrix(0.05,0,0,0.05,0,0)" xlink:href="#T"/><use transform="matrix(0.05,0,0,0.05,10,0)" xlink:href="#W"/></g><g id="p"><use transform="matrix(0.05,0,0,0.05,0,0)" xlink:href="#T"/><use transform="matrix(0.05,0,0,0.05,10,0)" xlink:href="#X"/></g><g id="q"><use transform="matrix(0.05,0,0,0.05,0,0)" xlink:href="#T"/><use transform="matrix(0.05,0,0,0.05,10,0)" xlink:href="#Y"/></g><g id="r"><use transform="matrix(0.05,0,0,0.05,0,0)" xlink:href="#T"/><use transform="matrix(0.05,0,0,0.05,10,0)" xlink:href="#Z"/></g><g id="s"><use transform="matrix(0.05,0,0,0.05,0,0)" xlink:href="#T"/><use transform="matrix(0.05,0,0,0.05,10,0)" xlink:href="#aa"/></g><g id="t"><use transform="matrix(0.05,0,0,0.05,0,0)" xlink:href="#T"/><use transform="matrix(0.05,0,0,0.05,10,0)" xlink:href="#ab"/></g><g id="u"><use transform="matrix(0.05,0,0,0.05,0,0)" xlink:href="#U"/><use transform="matrix(0.05,0,0,0.05,10,0)" xlink:href="#ac"/></g><g id="v"><use transform="matrix(0.05,0,0,0.05,0,0)" xlink:href="#U"/><use transform="matrix(0.05,0,0,0.05,10,0)" xlink:href="#T"/></g><g id="w"><use transform="matrix(0.05,0,0,0.05,0,0)" xlink:href="#U"/><use transform="matrix(0.05,0,0,0.05,10,0)" xlink:href="#U"/></g><g id="x"><use transform="matrix(0.05,0,0,0.05,0,0)" xlink:href="#U"/><use transform="matrix(0.05,0,0,0.05,10,0)" xlink:href="#V"/></g><g id="y"><use transform="matrix(0.05,0,0,0.05,0,0)" xlink:href="#U"/><use transform="matrix(0.05,0,0,0.05,10,0)" xlink:href="#W"/></g><g id="z"><use transform="matrix(0.05,0,0,0.05,0,0)" xlink:href="#U"/><use transform="matrix(0.05,0,0,0.05,10,0)" xlink:href="#X"/></g><path fill="#fff" d="M143 4C61 4 22-44 18-125c-5-107 100-154 193-111 17 8 29 25 37 43l-32 9c-13-25-37-40-76-40-61 0-88 39-88 99 0 61 29 100 91 101 35 0 62-11 79-27v-45h-74v-28h105v86C228-13 192 4 143 4" id="ad"/><path fill="#fff" d="M141-36C126-15 110 5 73 4 37 3 15-17 15-53c-1-64 63-63 125-63 3-35-9-54-41-54-24 1-41 7-42 31l-33-3c5-37 33-52 76-52 45 0 72 20 72 64v82c-1 20 7 32 28 27v20c-31 9-61-2-59-35zM48-53c0 20 12 33 32 33 41-3 63-29 60-74-43 2-92-5-92 41" id="ae"/><path fill="#fff" d="M59-47c-2 24 18 29 38 22v24C64 9 27 4 27-40v-127H5v-23h24l9-43h21v43h35v23H59v120" id="af"/><path fill="#fff" d="M106-169C34-169 62-67 57 0H25v-261h32l-1 103c12-21 28-36 61-36 89 0 53 116 60 194h-32v-121c2-32-8-49-39-48" id="ag"/><path fill="#fff" d="M100-194c63 0 86 42 84 106H49c0 40 14 67 53 68 26 1 43-12 49-29l28 8c-11 28-37 45-77 45C44 4 14-33 15-96c1-61 26-98 85-98zm52 81c6-60-76-77-97-28-3 7-6 17-6 28h103" id="ah"/><path fill="#fff" d="M114-163C36-179 61-72 57 0H25l-1-190h30c1 12-1 29 2 39 6-27 23-49 58-41v29" id="ai"/><path fill="#fff" d="M24-231v-30h32v30H24zM24 0v-190h32V0H24" id="aj"/><path fill="#fff" d="M117-194c89-4 53 116 60 194h-32v-121c0-31-8-49-39-48C34-167 62-67 57 0H25l-1-190h30c1 10-1 24 2 32 11-22 29-35 61-36" id="ak"/><path fill="#fff" d="M177-190C167-65 218 103 67 71c-23-6-38-20-44-43l32-5c15 47 100 32 89-28v-30C133-14 115 1 83 1 29 1 15-40 15-95c0-56 16-97 71-98 29-1 48 16 59 35 1-10 0-23 2-32h30zM94-22c36 0 50-32 50-73 0-42-14-75-50-75-39 0-46 34-46 75s6 73 46 73" id="al"/><g id="A"><use transform="matrix(0.06172839506172839,0,0,0.06172839506172839,0,0)" xlink:href="#ad"/><use transform="matrix(0.06172839506172839,0,0,0.06172839506172839,17.28395061728395,0)" xlink:href="#ae"/><use transform="matrix(0.06172839506172839,0,0,0.06172839506172839,29.629629629629626,0)" xlink:href="#af"/><use transform="matrix(0.06172839506172839,0,0,0.06172839506172839,35.80246913580247,0)" xlink:href="#ag"/><use transform="matrix(0.06172839506172839,0,0,0.06172839506172839,48.148148148148145,0)" xlink:href="#ah"/><use transform="matrix(0.06172839506172839,0,0,0.06172839506172839,60.49382716049382,0)" xlink:href="#ai"/><use transform="matrix(0.06172839506172839,0,0,0.06172839506172839,67.8395061728395,0)" xlink:href="#aj"/><use transform="matrix(0.06172839506172839,0,0,0.06172839506172839,72.71604938271605,0)" xlink:href="#ak"/><use transform="matrix(0.06172839506172839,0,0,0.06172839506172839,85.06172839506173,0)" xlink:href="#al"/></g><path fill="#fff" d="M233-177c-1 41-23 64-60 70L243 0h-38l-65-103H63V0H30v-248c88 3 205-21 203 71zM63-129c60-2 137 13 137-47 0-61-80-42-137-45v92" id="am"/><path fill="#fff" d="M145-31C134-9 116 4 85 4 32 4 16-35 15-94c0-59 17-99 70-100 32-1 48 14 60 33 0-11-1-24 2-32h30l-1 268h-32zM93-21c41 0 51-33 51-76s-8-73-50-73c-40 0-46 35-46 75s5 74 45 74" id="an"/><path fill="#fff" d="M84 4C-5 8 30-112 23-190h32v120c0 31 7 50 39 49 72-2 45-101 50-169h31l1 190h-30c-1-10 1-25-2-33-11 22-28 36-60 37" id="ao"/><path fill="#fff" d="M210-169c-67 3-38 105-44 169h-31v-121c0-29-5-50-35-48C34-165 62-65 56 0H25l-1-190h30c1 10-1 24 2 32 10-44 99-50 107 0 11-21 27-35 58-36 85-2 47 119 55 194h-31v-121c0-29-5-49-35-48" id="ap"/><path fill="#fff" d="M135-143c-3-34-86-38-87 0 15 53 115 12 119 90S17 21 10-45l28-5c4 36 97 45 98 0-10-56-113-15-118-90-4-57 82-63 122-42 12 7 21 19 24 35" id="aq"/><g id="B"><use transform="matrix(0.06172839506172839,0,0,0.06172839506172839,0,0)" xlink:href="#am"/><use transform="matrix(0.06172839506172839,0,0,0.06172839506172839,15.987654320987653,0)" xlink:href="#ah"/><use transform="matrix(0.06172839506172839,0,0,0.06172839506172839,28.333333333333332,0)" xlink:href="#an"/><use transform="matrix(0.06172839506172839,0,0,0.06172839506172839,40.67901234567901,0)" xlink:href="#ao"/><use transform="matrix(0.06172839506172839,0,0,0.06172839506172839,53.02469135802469,0)" xlink:href="#aj"/><use transform="matrix(0.06172839506172839,0,0,0.06172839506172839,57.901234567901234,0)" xlink:href="#ai"/><use transform="matrix(0.06172839506172839,0,0,0.06172839506172839,65.24691358024691,0)" xlink:href="#ah"/><use transform="matrix(0.06172839506172839,0,0,0.06172839506172839,77.5925925925926,0)" xlink:href="#ap"/><use transform="matrix(0.06172839506172839,0,0,0.06172839506172839,96.04938271604938,0)" xlink:href="#ah"/><use transform="matrix(0.06172839506172839,0,0,0.06172839506172839,108.39506172839506,0)" xlink:href="#ak"/><use transform="matrix(0.06172839506172839,0,0,0.06172839506172839,120.74074074074075,0)" xlink:href="#af"/><use transform="matrix(0.06172839506172839,0,0,0.06172839506172839,126.91358024691357,0)" xlink:href="#aq"/></g><path fill="#fff" d="M185-189c-5-48-123-54-124 2 14 75 158 14 163 119 3 78-121 87-175 55-17-10-28-26-33-46l33-7c5 56 141 63 141-1 0-78-155-14-162-118-5-82 145-84 179-34 5 7 8 16 11 25" id="ar"/><path fill="#fff" d="M143 0L79-87 56-68V0H24v-261h32v163l83-92h37l-77 82L181 0h-38" id="as"/><path fill="#fff" d="M96-169c-40 0-48 33-48 73s9 75 48 75c24 0 41-14 43-38l32 2c-6 37-31 61-74 61-59 0-76-41-82-99-10-93 101-131 147-64 4 7 5 14 7 22l-32 3c-4-21-16-35-41-35" id="at"/><g id="C"><use transform="matrix(0.06172839506172839,0,0,0.06172839506172839,0,0)" xlink:href="#ar"/><use transform="matrix(0.06172839506172839,0,0,0.06172839506172839,14.814814814814813,0)" xlink:href="#as"/><use transform="matrix(0.06172839506172839,0,0,0.06172839506172839,25.925925925925924,0)" xlink:href="#ah"/><use transform="matrix(0.06172839506172839,0,0,0.06172839506172839,38.2716049382716,0)" xlink:href="#af"/><use transform="matrix(0.06172839506172839,0,0,0.06172839506172839,44.44444444444444,0)" xlink:href="#at"/><use transform="matrix(0.06172839506172839,0,0,0.06172839506172839,55.55555555555556,0)" xlink:href="#ag"/><use transform="matrix(0.06172839506172839,0,0,0.06172839506172839,67.90123456790124,0)" xlink:href="#aj"/><use transform="matrix(0.06172839506172839,0,0,0.06172839506172839,72.77777777777779,0)" xlink:href="#ak"/><use transform="matrix(0.06172839506172839,0,0,0.06172839506172839,85.12345679012347,0)" xlink:href="#al"/></g><path fill="#fff" d="M30-248c87 1 191-15 191 75 0 78-77 80-158 76V0H30v-248zm33 125c57 0 124 11 124-50 0-59-68-47-124-48v98" id="au"/><path fill="#fff" d="M100-194c62-1 85 37 85 99 1 63-27 99-86 99S16-35 15-95c0-66 28-99 85-99zM99-20c44 1 53-31 53-75 0-43-8-75-51-75s-53 32-53 75 10 74 51 75" id="av"/><path fill="#fff" d="M179-190L93 31C79 59 56 82 12 73V49c39 6 53-20 64-50L1-190h34L92-34l54-156h33" id="aw"/><path fill="#fff" d="M115-194c55 1 70 41 70 98S169 2 115 4C84 4 66-9 55-30l1 105H24l-1-265h31l2 30c10-21 28-34 59-34zm-8 174c40 0 45-34 45-75s-6-73-45-74c-42 0-51 32-51 76 0 43 10 73 51 73" id="ax"/><g id="D"><use transform="matrix(0.06172839506172839,0,0,0.06172839506172839,0,0)" xlink:href="#au"/><use transform="matrix(0.06172839506172839,0,0,0.06172839506172839,14.814814814814813,0)" xlink:href="#ai"/><use transform="matrix(0.06172839506172839,0,0,0.06172839506172839,22.160493827160494,0)" xlink:href="#av"/><use transform="matrix(0.06172839506172839,0,0,0.06172839506172839,34.50617283950617,0)" xlink:href="#af"/><use transform="matrix(0.06172839506172839,0,0,0.06172839506172839,40.67901234567901,0)" xlink:href="#av"/><use transform="matrix(0.06172839506172839,0,0,0.06172839506172839,53.02469135802469,0)" xlink:href="#af"/><use transform="matrix(0.06172839506172839,0,0,0.06172839506172839,59.19753086419753,0)" xlink:href="#aw"/><use transform="matrix(0.06172839506172839,0,0,0.06172839506172839,70.30864197530865,0)" xlink:href="#ax"/><use transform="matrix(0.06172839506172839,0,0,0.06172839506172839,82.65432098765433,0)" xlink:href="#aj"/><use transform="matrix(0.06172839506172839,0,0,0.06172839506172839,87.53086419753087,0)" xlink:href="#ak"/><use transform="matrix(0.06172839506172839,0,0,0.06172839506172839,99.87654320987656,0)" xlink:href="#al"/></g><path fill="#fff" d="M63-220v92h138v28H63V0H30v-248h175v28H63" id="ay"/><g id="E"><use transform="matrix(0.06172839506172839,0,0,0.06172839506172839,0,0)" xlink:href="#ay"/><use transform="matrix(0.06172839506172839,0,0,0.06172839506172839,13.518518518518517,0)" xlink:href="#ai"/><use transform="matrix(0.06172839506172839,0,0,0.06172839506172839,20.864197530864196,0)" xlink:href="#av"/><use transform="matrix(0.06172839506172839,0,0,0.06172839506172839,33.20987654320987,0)" xlink:href="#ak"/><use transform="matrix(0.06172839506172839,0,0,0.06172839506172839,45.55555555555555,0)" xlink:href="#af"/></g><path fill="#fff" d="M85-194c31 0 48 13 60 33l-1-100h32l1 261h-30c-2-10 0-23-3-31C134-8 116 4 85 4 32 4 16-35 15-94c0-66 23-100 70-100zm9 24c-40 0-46 34-46 75 0 40 6 74 45 74 42 0 51-32 51-76 0-42-9-74-50-73" id="az"/><g id="F"><use transform="matrix(0.06172839506172839,0,0,0.06172839506172839,0,0)" xlink:href="#ah"/><use transform="matrix(0.06172839506172839,0,0,0.06172839506172839,12.345679012345679,0)" xlink:href="#ak"/><use transform="matrix(0.06172839506172839,0,0,0.06172839506172839,24.691358024691358,0)" xlink:href="#az"/></g><path fill="#fff" d="M160-131c35 5 61 23 61 61C221 17 115-2 30 0v-248c76 3 177-17 177 60 0 33-19 50-47 57zm-97-11c50-1 110 9 110-42 0-47-63-36-110-37v79zm0 115c55-2 124 14 124-45 0-56-70-42-124-44v89" id="aA"/><g id="G"><use transform="matrix(0.06172839506172839,0,0,0.06172839506172839,0,0)" xlink:href="#aA"/><use transform="matrix(0.06172839506172839,0,0,0.06172839506172839,14.814814814814813,0)" xlink:href="#ae"/><use transform="matrix(0.06172839506172839,0,0,0.06172839506172839,27.160493827160494,0)" xlink:href="#at"/><use transform="matrix(0.06172839506172839,0,0,0.06172839506172839,38.27160493827161,0)" xlink:href="#as"/><use transform="matrix(0.06172839506172839,0,0,0.06172839506172839,49.38271604938272,0)" xlink:href="#ah"/><use transform="matrix(0.06172839506172839,0,0,0.06172839506172839,61.7283950617284,0)" xlink:href="#ak"/><use transform="matrix(0.06172839506172839,0,0,0.06172839506172839,74.07407407407408,0)" xlink:href="#az"/></g><path fill="#fff" d="M101-234c-31-9-42 10-38 44h38v23H63V0H32v-167H5v-23h27c-7-52 17-82 69-68v24" id="aB"/><g id="H"><use transform="matrix(0.06172839506172839,0,0,0.06172839506172839,0,0)" xlink:href="#am"/><use transform="matrix(0.06172839506172839,0,0,0.06172839506172839,15.987654320987653,0)" xlink:href="#ah"/><use transform="matrix(0.06172839506172839,0,0,0.06172839506172839,28.333333333333332,0)" xlink:href="#aB"/><use transform="matrix(0.06172839506172839,0,0,0.06172839506172839,34.50617283950617,0)" xlink:href="#aj"/><use transform="matrix(0.06172839506172839,0,0,0.06172839506172839,39.382716049382715,0)" xlink:href="#ak"/><use transform="matrix(0.06172839506172839,0,0,0.06172839506172839,51.72839506172839,0)" xlink:href="#aj"/><use transform="matrix(0.06172839506172839,0,0,0.06172839506172839,56.60493827160494,0)" xlink:href="#ak"/><use transform="matrix(0.06172839506172839,0,0,0.06172839506172839,68.95061728395062,0)" xlink:href="#al"/></g><path fill="#fff" d="M266 0h-40l-56-210L115 0H75L2-248h35L96-30l15-64 43-154h32l59 218 59-218h35" id="aC"/><g id="I"><use transform="matrix(0.06172839506172839,0,0,0.06172839506172839,0,0)" xlink:href="#aC"/><use transform="matrix(0.06172839506172839,0,0,0.06172839506172839,20.493827160493826,0)" xlink:href="#ai"/><use transform="matrix(0.06172839506172839,0,0,0.06172839506172839,27.839506172839506,0)" xlink:href="#aj"/><use transform="matrix(0.06172839506172839,0,0,0.06172839506172839,32.71604938271605,0)" xlink:href="#af"/><use transform="matrix(0.06172839506172839,0,0,0.06172839506172839,38.88888888888889,0)" xlink:href="#ah"/><use transform="matrix(0.06172839506172839,0,0,0.06172839506172839,51.23456790123457,0)" xlink:href="#ao"/><use transform="matrix(0.06172839506172839,0,0,0.06172839506172839,63.58024691358025,0)" xlink:href="#ax"/></g><path fill="#fff" d="M127-220V0H93v-220H8v-28h204v28h-85" id="aD"/><g id="J"><use transform="matrix(0.06172839506172839,0,0,0.06172839506172839,0,0)" xlink:href="#aD"/><use transform="matrix(0.06172839506172839,0,0,0.06172839506172839,11.049382716049381,0)" xlink:href="#ah"/><use transform="matrix(0.06172839506172839,0,0,0.06172839506172839,23.39506172839506,0)" xlink:href="#aq"/><use transform="matrix(0.06172839506172839,0,0,0.06172839506172839,34.50617283950617,0)" xlink:href="#af"/><use transform="matrix(0.06172839506172839,0,0,0.06172839506172839,40.67901234567901,0)" xlink:href="#aj"/><use transform="matrix(0.06172839506172839,0,0,0.06172839506172839,45.55555555555556,0)" xlink:href="#ak"/><use transform="matrix(0.06172839506172839,0,0,0.06172839506172839,57.901234567901234,0)" xlink:href="#al"/></g><g id="K"><use transform="matrix(0.06172839506172839,0,0,0.06172839506172839,0,0)" xlink:href="#aA"/><use transform="matrix(0.06172839506172839,0,0,0.06172839506172839,14.814814814814813,0)" xlink:href="#ao"/><use transform="matrix(0.06172839506172839,0,0,0.06172839506172839,27.160493827160494,0)" xlink:href="#al"/></g><path fill="#fff" d="M141 0L90-78 38 0H4l68-98-65-92h35l48 74 47-74h35l-64 92 68 98h-35" id="aE"/><g id="L"><use transform="matrix(0.06172839506172839,0,0,0.06172839506172839,0,0)" xlink:href="#aB"/><use transform="matrix(0.06172839506172839,0,0,0.06172839506172839,6.172839506172839,0)" xlink:href="#aj"/><use transform="matrix(0.06172839506172839,0,0,0.06172839506172839,11.049382716049383,0)" xlink:href="#aE"/><use transform="matrix(0.06172839506172839,0,0,0.06172839506172839,22.160493827160494,0)" xlink:href="#aj"/><use transform="matrix(0.06172839506172839,0,0,0.06172839506172839,27.037037037037038,0)" xlink:href="#ak"/><use transform="matrix(0.06172839506172839,0,0,0.06172839506172839,39.382716049382715,0)" xlink:href="#al"/></g><path fill="#fff" d="M30-248c118-7 216 8 213 122C240-48 200 0 122 0H30v-248zM63-27c89 8 146-16 146-99s-60-101-146-95v194" id="aF"/><g id="M"><use transform="matrix(0.06172839506172839,0,0,0.06172839506172839,0,0)" xlink:href="#aF"/><use transform="matrix(0.06172839506172839,0,0,0.06172839506172839,15.987654320987653,0)" xlink:href="#av"/><use transform="matrix(0.06172839506172839,0,0,0.06172839506172839,28.333333333333332,0)" xlink:href="#at"/><use transform="matrix(0.06172839506172839,0,0,0.06172839506172839,39.44444444444444,0)" xlink:href="#ao"/><use transform="matrix(0.06172839506172839,0,0,0.06172839506172839,51.79012345679012,0)" xlink:href="#ap"/><use transform="matrix(0.06172839506172839,0,0,0.06172839506172839,70.24691358024691,0)" xlink:href="#ah"/><use transform="matrix(0.06172839506172839,0,0,0.06172839506172839,82.5925925925926,0)" xlink:href="#ak"/><use transform="matrix(0.06172839506172839,0,0,0.06172839506172839,94.93827160493828,0)" xlink:href="#af"/><use transform="matrix(0.06172839506172839,0,0,0.06172839506172839,101.11111111111111,0)" xlink:href="#ae"/><use transform="matrix(0.06172839506172839,0,0,0.06172839506172839,113.4567901234568,0)" xlink:href="#af"/><use transform="matrix(0.06172839506172839,0,0,0.06172839506172839,119.62962962962963,0)" xlink:href="#aj"/><use transform="matrix(0.06172839506172839,0,0,0.06172839506172839,124.50617283950618,0)" xlink:href="#av"/><use transform="matrix(0.06172839506172839,0,0,0.06172839506172839,136.85185185185185,0)" xlink:href="#ak"/></g><path fill="#fff" d="M24 0v-261h32V0H24" id="aG"/><g id="N"><use transform="matrix(0.04938271604938272,0,0,0.04938271604938272,0,0)" xlink:href="#au"/><use transform="matrix(0.04938271604938272,0,0,0.04938271604938272,11.851851851851853,0)" xlink:href="#aG"/><use transform="matrix(0.04938271604938272,0,0,0.04938271604938272,15.753086419753087,0)" xlink:href="#ae"/><use transform="matrix(0.04938271604938272,0,0,0.04938271604938272,25.629629629629633,0)" xlink:href="#ak"/><use transform="matrix(0.04938271604938272,0,0,0.04938271604938272,35.50617283950618,0)" xlink:href="#ak"/><use transform="matrix(0.04938271604938272,0,0,0.04938271604938272,45.38271604938272,0)" xlink:href="#aj"/><use transform="matrix(0.04938271604938272,0,0,0.04938271604938272,49.283950617283956,0)" xlink:href="#ak"/><use transform="matrix(0.04938271604938272,0,0,0.04938271604938272,59.1604938271605,0)" xlink:href="#al"/></g><g id="O"><use transform="matrix(0.04938271604938272,0,0,0.04938271604938272,0,0)" xlink:href="#am"/><use transform="matrix(0.04938271604938272,0,0,0.04938271604938272,12.790123456790125,0)" xlink:href="#ah"/><use transform="matrix(0.04938271604938272,0,0,0.04938271604938272,22.66666666666667,0)" xlink:href="#aG"/><use transform="matrix(0.04938271604938272,0,0,0.04938271604938272,26.567901234567902,0)" xlink:href="#ah"/><use transform="matrix(0.04938271604938272,0,0,0.04938271604938272,36.44444444444445,0)" xlink:href="#ae"/><use transform="matrix(0.04938271604938272,0,0,0.04938271604938272,46.320987654320994,0)" xlink:href="#aq"/><use transform="matrix(0.04938271604938272,0,0,0.04938271604938272,55.209876543209894,0)" xlink:href="#aj"/><use transform="matrix(0.04938271604938272,0,0,0.04938271604938272,59.111111111111114,0)" xlink:href="#ak"/><use transform="matrix(0.04938271604938272,0,0,0.04938271604938272,68.98765432098767,0)" xlink:href="#al"/></g><path fill="#fff" d="M108 0H70L1-190h34L89-25l56-165h34" id="aH"/><g id="P"><use transform="matrix(0.04938271604938272,0,0,0.04938271604938272,0,0)" xlink:href="#aF"/><use transform="matrix(0.04938271604938272,0,0,0.04938271604938272,12.790123456790125,0)" xlink:href="#ah"/><use transform="matrix(0.04938271604938272,0,0,0.04938271604938272,22.66666666666667,0)" xlink:href="#aH"/><use transform="matrix(0.04938271604938272,0,0,0.04938271604938272,31.555555555555557,0)" xlink:href="#ah"/><use transform="matrix(0.04938271604938272,0,0,0.04938271604938272,41.4320987654321,0)" xlink:href="#aG"/><use transform="matrix(0.04938271604938272,0,0,0.04938271604938272,45.333333333333336,0)" xlink:href="#av"/><use transform="matrix(0.04938271604938272,0,0,0.04938271604938272,55.20987654320988,0)" xlink:href="#ax"/><use transform="matrix(0.04938271604938272,0,0,0.04938271604938272,65.08641975308643,0)" xlink:href="#aj"/><use transform="matrix(0.04938271604938272,0,0,0.04938271604938272,68.98765432098767,0)" xlink:href="#ak"/><use transform="matrix(0.04938271604938272,0,0,0.04938271604938272,78.86419753086422,0)" xlink:href="#al"/></g></defs></g></svg>